<?xml version="1.0" encoding="utf-8"?>
    <!-- Generator: Adobe Illustrator 16.0.0, SVG Export Plug-In . SVG Version: 6.00 Build 0)  -->
    <!DOCTYPE svg PUBLIC "-//W3C//DTD SVG 1.1//EN" "http://www.w3.org/Graphics/SVG/1.1/DTD/svg11.dtd">
    <svg version="1.1" id="logo" xmlns="http://www.w3.org/2000/svg" xmlns:xlink="http://www.w3.org/1999/xlink" x="0px" y="0px" viewBox="0 0 616.136 872.646" style="enable-background:new 0 0 616.136 872.646;" xml:space="preserve">
        <defs>
            <style type="text/css">
                <![CDATA[ .st0 {
                    fill: #fff;
                    fill-opacity: 0.1;
                    stroke: #000000;
                    stroke-width: 5;
                    stroke-miterlimit: 10;
                }
                
                .st0 {
                    stroke-dasharray: 5000;
                    stroke-dashoffset: 0;
                    -webkit-animation: dash 3s linear forwards;
                    -o-animation: dash 3s linear forwards;
                    -moz-animation: dash 3s linear forwards;
                    animation: dash 3s linear forwards;
                }
                
                @-webkit-keyframes dash {
                    0% {
                        stroke-dashoffset: 5000;
                    }
                    90% {
                        fill: #fff;
                        fill-opacity: 1;
                    }
                    100% {
                        stroke-dashoffset: 0;
                        fill: #000;
                        fill-opacity: 1;
                    }
                }
                
                @keyframes dash {
                    0% {
                        stroke-dashoffset: 5000;
                    }
                    90% {
                        fill: #fff;
                        fill-opacity: 1;
                    }
                    100% {
                        stroke-dashoffset: 0;
                        fill: #000;
                        fill-opacity: 1;
                    }
                }
                
                ]]>

            </style>
        </defs>
        <g id="g16">
            <path id="path22" class="st0" d="M9,734.409l41.015,2.58V561.229L9,558.649V734.409z" />
            <path id="path24" class="st0" d="M112.378,561.469c1.207,0.164,2.293,0.465,3.259,0.906c0.965,0.443,1.888,1.066,2.773,1.871
		c0.885,0.803,1.889,1.889,3.016,3.254l83.478,105.553c-0.32-3.377-0.563-6.651-0.723-9.832c-0.164-3.176-0.243-6.17-0.243-8.985
		v-93.007h35.948v175.761h-21.23c-3.137,0-5.771-0.502-7.899-1.511c-2.134-1.002-4.244-2.754-6.335-5.245l-82.873-104.709
		c0.242,3.059,0.439,6.055,0.604,8.987c0.159,2.938,0.24,5.691,0.24,8.265v94.213H86.443V561.229h21.475
		C109.684,561.229,111.172,561.309,112.378,561.469" />
            <path id="path26" class="st0" d="M389.022,686.209c0.965,0,1.932,0.178,2.895,0.541c0.968,0.363,1.891,0.984,2.776,1.869
		l16.162,17.01c-7.077,9.246-15.942,16.225-26.599,20.928c-10.656,4.707-23.263,7.058-37.816,7.058
		c-13.351,0-25.313-2.271-35.889-6.816c-10.576-4.541-19.54-10.813-26.9-18.813c-7.357-8.006-13.008-17.492-16.947-28.472
		c-3.941-10.979-5.912-22.897-5.912-35.768c0-13.107,2.131-25.15,6.396-36.129c4.26-10.976,10.252-20.447,17.972-28.408
		c7.721-7.961,16.97-14.152,27.744-18.576c10.777-4.422,22.638-6.637,35.587-6.637c6.597,0,12.809,0.586,18.639,1.752
		c5.828,1.164,11.277,2.771,16.345,4.824c5.067,2.051,9.729,4.524,13.995,7.42c4.26,2.891,8.038,6.03,11.337,9.407l-13.75,18.457
		c-0.886,1.125-1.932,2.148-3.139,3.076c-1.206,0.924-2.895,1.388-5.064,1.388c-1.448,0-2.814-0.32-4.104-0.966
		c-1.284-0.645-2.652-1.428-4.101-2.354c-1.447-0.922-3.035-1.928-4.765-3.014c-1.73-1.086-3.781-2.093-6.152-3.019
		c-2.373-0.922-5.147-1.707-8.325-2.35c-3.176-0.646-6.894-0.965-11.156-0.965c-6.756,0-12.928,1.248-18.519,3.737
		c-5.589,2.494-10.416,6.136-14.474,10.916c-4.063,4.787-7.197,10.658-9.41,17.613c-2.213,6.959-3.318,14.898-3.318,23.824
		c0,9.006,1.228,17.008,3.68,24.006c2.453,6.996,5.789,12.887,10.013,17.674c4.223,4.785,9.147,8.424,14.776,10.914
		c5.628,2.496,11.66,3.744,18.098,3.744c3.696,0,7.077-0.185,10.132-0.545c3.056-0.361,5.912-0.965,8.563-1.812
		c2.656-0.844,5.147-1.969,7.481-3.375c2.329-1.407,4.704-3.198,7.117-5.369c0.964-0.805,2.007-1.467,3.135-1.993
		C386.649,686.469,387.817,686.209,389.022,686.209" />
            <path id="path28" class="st0" d="M563.534,649.047c0-8.684-1.125-16.504-3.379-23.461c-2.252-6.957-5.485-12.85-9.709-17.674
		c-4.223-4.824-9.393-8.523-15.502-11.098c-6.114-2.572-13.071-3.859-20.87-3.859c-7.883,0-14.896,1.287-21.048,3.859
		c-6.155,2.573-11.34,6.272-15.563,11.098c-4.224,4.825-7.46,10.717-9.714,17.674c-2.25,6.957-3.376,14.777-3.376,23.461
		c0,8.769,1.126,16.629,3.376,23.584c2.254,6.957,5.49,12.848,9.714,17.672c4.223,4.826,9.406,8.504,15.563,11.037
		c6.15,2.535,13.165,3.801,21.048,3.801c7.799,0,14.756-1.266,20.87-3.801c6.109-2.533,11.279-6.211,15.502-11.037
		c4.224-4.824,7.457-10.715,9.709-17.672C562.409,665.676,563.534,657.815,563.534,649.047L563.534,649.047z M605.272,649.047
		c0,12.709-2.192,24.529-6.575,35.467c-4.384,10.937-10.555,20.445-18.515,28.527c-7.964,8.084-17.553,14.416-28.772,19
		c-11.218,4.584-23.664,6.875-37.335,6.875s-26.138-2.291-37.396-6.875c-11.257-4.584-20.889-10.916-28.89-19
		c-8.003-8.082-14.194-17.592-18.577-28.527c-4.385-10.938-6.575-22.758-6.575-35.467c0-12.707,2.19-24.527,6.575-35.467
		c4.383-10.934,10.574-20.424,18.577-28.467c8.001-8.043,17.633-14.355,28.89-18.938c11.259-4.584,23.726-6.879,37.396-6.879
		s26.117,2.314,37.335,6.938c11.221,4.625,20.81,10.957,28.772,19c7.961,8.041,14.131,17.532,18.515,28.469
		C603.079,624.641,605.272,636.422,605.272,649.047" />
            <path id="path30" class="st0" d="M16.461,818.79h19.052c4.49,0,8.523-0.627,12.097-1.885c3.573-1.254,6.604-2.994,9.092-5.218
		c2.485-2.221,4.395-4.84,5.723-7.856c1.328-3.021,1.992-6.314,1.992-9.889c0-7.871-2.415-13.935-7.243-18.183
		c-4.83-4.25-12.051-6.375-21.659-6.375H16.461V818.79z M16.461,824.729v41.287H9v-102.5h26.513c12.024,0,21.091,2.636,27.2,7.898
		c6.107,5.262,9.163,12.773,9.163,22.527c0,4.489-0.846,8.618-2.535,12.387c-1.691,3.768-4.104,7.016-7.244,9.744
		c-3.14,2.728-6.954,4.852-11.445,6.373c-4.489,1.521-9.536,2.283-15.139,2.283H16.461" />
            <path id="path32" class="st0" d="M101.646,814.151h17.747c4.539,0,8.607-0.541,12.206-1.632c3.598-1.086,6.639-2.643,9.127-4.67
		c2.487-2.026,4.382-4.467,5.687-7.315c1.304-2.849,1.956-6.062,1.956-9.635c0-7.291-2.38-12.701-7.136-16.228
		c-4.757-3.524-11.697-5.287-20.825-5.287h-18.762V814.151z M101.646,819.657v46.358h-7.461v-102.5h26.223
		c11.782,0,20.608,2.283,26.477,6.847c5.867,4.563,8.802,11.266,8.802,20.104c0,3.912-0.688,7.486-2.064,10.722
		c-1.376,3.235-3.332,6.071-5.866,8.51c-2.536,2.44-5.604,4.444-9.2,6.012c-3.599,1.572-7.619,2.598-12.062,3.082
		c1.158,0.723,2.197,1.689,3.114,2.895l35.276,44.332h-6.373c-0.822,0-1.511-0.131-2.065-0.397
		c-0.556-0.264-1.073-0.762-1.557-1.484l-32.888-41.578c-0.386-0.53-0.784-0.989-1.195-1.379c-0.41-0.383-0.868-0.688-1.376-0.903
		c-0.507-0.218-1.111-0.373-1.811-0.472c-0.7-0.096-1.559-0.145-2.571-0.145h-13.402" />
            <path id="path34" class="st0" d="M266.079,814.729c0-7.143-0.991-13.565-2.971-19.266c-1.979-5.699-4.777-10.527-8.4-14.488
		c-3.621-3.959-7.97-6.989-13.04-9.092c-5.069-2.102-10.672-3.149-16.806-3.149c-6.084,0-11.662,1.049-16.732,3.149
		c-5.069,2.103-9.429,5.133-13.075,9.092c-3.646,3.961-6.472,8.789-8.475,14.488c-2.004,5.699-3.008,12.123-3.008,19.266
		c0,7.197,1.004,13.634,3.008,19.308c2.003,5.676,4.828,10.492,8.475,14.451c3.646,3.961,8.006,6.979,13.075,9.055
		c5.07,2.078,10.648,3.115,16.732,3.115c6.134,0,11.735-1.037,16.806-3.115c5.07-2.076,9.419-5.094,13.04-9.055
		c3.623-3.959,6.422-8.775,8.4-14.451C265.088,828.362,266.079,821.926,266.079,814.729L266.079,814.729z M273.759,817.309
		c0,7.923-1.184,12.525-3.549,18.974c-2.367,6.447-5.699,11.951-9.998,16.516c-4.296,4.563-9.45,8.088-15.464,10.576
		s-12.643,3.729-19.886,3.729s-13.859-1.241-19.849-3.729c-5.987-2.488-11.131-6.014-15.428-10.576
		c-4.299-4.563-7.632-10.067-9.997-16.516c-2.367-6.447-3.55-13.631-3.55-21.553c0-7.869,1.183-15.029,3.55-21.476
		c2.365-6.447,5.698-11.953,9.997-16.516c4.297-4.566,9.439-8.103,15.428-10.613c5.988-2.512,12.604-3.766,19.849-3.766
		c7.243,0,13.872,1.242,19.886,3.729c6.014,2.488,11.168,6.023,15.464,10.609c4.299,4.59,7.631,10.106,9.998,16.555
		c2.365,6.445,3.549,13.605,3.549,21.476" />
            <path id="path36" class="st0" d="M323.303,831.827c0,5.748-0.698,10.817-2.1,15.211c-1.398,4.395-3.429,8.09-6.084,11.084
		c-2.653,2.996-5.865,5.252-9.635,6.772c-3.768,1.521-8.018,2.281-12.746,2.281c-2.175,0-4.371-0.168-6.594-0.51
		c-2.222-0.336-4.519-0.865-6.883-1.59c0.05-0.678,0.111-1.353,0.182-2.031c0.07-0.674,0.156-1.35,0.256-2.027
		c0.095-0.434,0.274-0.819,0.542-1.157c0.265-0.336,0.734-0.507,1.411-0.507c0.438,0,0.955,0.084,1.56,0.253
		c0.604,0.17,1.315,0.352,2.137,0.545c0.821,0.192,1.788,0.373,2.896,0.541c1.112,0.17,2.391,0.256,3.839,0.256
		c3.669,0,6.979-0.58,9.927-1.74c2.941-1.158,5.457-2.934,7.532-5.324c2.073-2.389,3.659-5.408,4.743-9.055
		c1.089-3.646,1.632-7.93,1.632-12.855v-68.456l7.386,2.579v68.312" />
            <path id="path38" class="st0" d="M415.447,763.516v6.158h-53.966v44.017l44.91-2.58v6.012h-44.91v42.738h54.108l-0.144,6.155
		h-61.43v-102.5H415.447" />
            <path id="path40" class="st0" d="M511.134,848.778c0.48,0,0.892,0.17,1.229,0.506l2.898,3.115c-2.126,2.271-4.434,4.309-6.918,6.12
		c-2.488,1.812-5.216,3.357-8.186,4.638c-2.972,1.278-6.229,2.268-9.78,2.969c-3.55,0.701-7.449,1.051-11.698,1.051
		c-7.1,0-13.606-1.244-19.521-3.729c-5.916-2.486-11-6.013-15.249-10.576c-4.25-4.564-7.546-10.08-9.887-16.553
		c-2.342-6.47-3.514-13.666-3.514-21.588c0-7.771,1.207-14.871,3.621-21.293c2.415-6.425,5.796-11.941,10.142-16.556
		c4.347-4.608,9.563-8.184,15.648-10.721c6.084-2.535,12.794-3.801,20.137-3.801c7.002,0,13.208,1.086,18.617,3.258
		c5.406,2.176,10.332,5.24,14.776,9.201l-2.248,3.26c-0.387,0.58-0.988,0.869-1.811,0.869c-0.577,0-1.521-0.533-2.825-1.595
		c-1.303-1.063-3.114-2.233-5.432-3.514c-2.319-1.279-5.204-2.449-8.656-3.514c-3.452-1.062-7.596-1.594-12.423-1.594
		c-6.184,0-11.844,1.063-16.986,3.188c-5.142,2.125-9.562,5.166-13.258,9.125c0.418-0.447-10.692,20.08-8.655,14.488
		c-2.078,5.701-3.114,12.1-3.114,19.195c0,7.243,1.052,13.719,3.149,19.416c2.103,5.698,4.987,10.516,8.656,14.45
		c3.672,3.937,8.006,6.953,13.004,9.056c4.998,2.1,10.395,3.149,16.191,3.149c3.669,0,6.938-0.239,9.813-0.725
		c2.872-0.482,5.52-1.207,7.934-2.174c2.413-0.963,4.659-2.148,6.736-3.55c2.074-1.399,4.129-3.041,6.157-4.926
		c0.24-0.188,0.481-0.35,0.724-0.471C510.651,848.838,510.892,848.778,511.134,848.778" />
            <path id="path42" class="st0" d="M603.199,763.516v6.306l-36.002,2.58v96.194l-7.461-2.58v-96.194h-36.22v-6.306H603.199" />
            <path id="path44" class="st0" d="M39.134,35.281h536v448h-6.667v-89.188L342.842,129.808l-2.398,353.472h-11.977V113.767
		L253.8,46.08v437.2h-18.666V58.66l-74.667,82.66v341.96H145.8V161.685l-78.666,67.088V483.28h-28V35.281z M9.8,5.948v505.334
		h86.667V242.084l21.333-18.296V511.28h72V152.338l16-18.664V511.28h77.334V111.181l16,15.283V511.28h69.884l0.178-28.465
		l1.625-275.82l168.313,197.687V511.28h65.333V5.948H9.8" />
        </g>
    </svg>
